<svg width="300" height="233" viewBox="0 0 300 233" fill="none" xmlns="http://www.w3.org/2000/svg">
<path d="M184.91 0C186.804 0.000124003 188.535 1.07 189.382 2.76367L204.382 32.7637C204.421 32.8419 204.457 32.9212 204.491 33H254C279.405 33 300 53.5949 300 79V187C300 212.405 279.405 233 254 233H46C20.5949 233 4.51041e-07 212.405 0 187V79C2.0619e-06 53.5949 20.5949 33 46 33H43V21C43 18.2386 45.2386 16 48 16H76C78.7614 16 81 18.2386 81 21V33H96.5088C96.5434 32.9212 96.5791 32.8419 96.6182 32.7637L111.618 2.76367C112.465 1.07 114.196 0.000122846 116.09 0H184.91ZM150 68C114.101 68 85 97.1015 85 133C85 168.899 114.101 198 150 198C185.899 198 215 168.899 215 133C215 97.1015 185.899 68 150 68ZM150 83C177.614 83 200 105.386 200 133C200 160.614 177.614 183 150 183C122.386 183 100 160.614 100 133C100 105.386 122.386 83 150 83ZM114 124C111.239 124 109 126.239 109 129C109 131.761 111.239 134 114 134C116.761 134 119 131.761 119 129C119 126.239 116.761 124 114 124ZM126 103C120.477 103 116 107.477 116 113C116 118.523 120.477 123 126 123C131.523 123 136 118.523 136 113C136 107.477 131.523 103 126 103Z" fill="#F2A73C"/>
<mask id="mask0_4_49" style="mask-type:alpha" maskUnits="userSpaceOnUse" x="0" y="0" width="300" height="233">
<path d="M184.91 0C186.804 0.000124003 188.535 1.07 189.382 2.76367L204.382 32.7637C204.421 32.8419 204.457 32.9212 204.491 33H254C279.405 33 300 53.5949 300 79V187C300 212.405 279.405 233 254 233H46C20.5949 233 4.51041e-07 212.405 0 187V79C2.0619e-06 53.5949 20.5949 33 46 33H43V21C43 18.2386 45.2386 16 48 16H76C78.7614 16 81 18.2386 81 21V33H96.5088C96.5434 32.9212 96.5791 32.8419 96.6182 32.7637L111.618 2.76367C112.465 1.07 114.196 0.000122846 116.09 0H184.91ZM150 68C114.101 68 85 97.1015 85 133C85 168.899 114.101 198 150 198C185.899 198 215 168.899 215 133C215 97.1015 185.899 68 150 68ZM150 83C177.614 83 200 105.386 200 133C200 160.614 177.614 183 150 183C122.386 183 100 160.614 100 133C100 105.386 122.386 83 150 83ZM114 124C111.239 124 109 126.239 109 129C109 131.761 111.239 134 114 134C116.761 134 119 131.761 119 129C119 126.239 116.761 124 114 124ZM126 103C120.477 103 116 107.477 116 113C116 118.523 120.477 123 126 123C131.523 123 136 118.523 136 113C136 107.477 131.523 103 126 103Z" fill="#F2A73C"/>
</mask>
<g mask="url(#mask0_4_49)">
<path d="M305 241H150V186.887C151.157 186.961 152.324 187 153.5 187C183.047 187 207 163.047 207 133.5C207 103.953 183.047 80 153.5 80C152.324 80 151.157 80.0376 150 80.1123V-15H305V241Z" fill="#E79C22"/>
</g>
<mask id="mask1_4_49" style="mask-type:alpha" maskUnits="userSpaceOnUse" x="100" y="83" width="100" height="100">
<circle cx="150" cy="133" r="50" fill="#E79C22"/>
</mask>
<g mask="url(#mask1_4_49)">
<circle cx="181" cy="165" r="50" fill="#E79C22"/>
</g>
</svg>
